<svg width="137" height="66" viewBox="0 0 137 66" fill="none" xmlns="http://www.w3.org/2000/svg">
<path d="M1.44141 37V12.3906H4.5V33.9766H14.6602V37H1.44141ZM16.6289 31.7969V23.1133C16.6289 22.0117 17.1211 20.9336 18.1055 19.8789C19.3242 18.6133 20.8477 17.9805 22.6758 17.9805V20.8281C21.293 20.8281 20.332 21.4023 19.793 22.5508C19.6289 22.9023 19.5469 23.2539 19.5469 23.6055V31.3398C19.5469 32.207 19.9453 32.9453 20.7422 33.5547C21.3047 33.9766 21.9492 34.1875 22.6758 34.1875V37.0352C20.4492 37.0352 18.7266 36.1328 17.5078 34.3281C16.9219 33.4375 16.6289 32.5938 16.6289 31.7969ZM24.1875 37.0352V34.1875C25.4297 34.1875 26.3203 33.625 26.8594 32.5C27.0469 32.125 27.1406 31.7617 27.1406 31.4102V23.6055C27.1406 22.6445 26.7305 21.8828 25.9102 21.3203C25.3945 20.9922 24.8086 20.8281 24.1523 20.8281V17.9805C26.3086 17.9805 27.9727 18.8594 29.1445 20.6172C29.7305 21.4844 30.0234 22.3164 30.0234 23.1133V31.7969C30.0234 32.9453 29.5312 34.0586 28.5469 35.1367C27.3984 36.3789 25.9453 37.0117 24.1875 37.0352ZM32.168 22.4102V19.5273H34.4883V17.4883C34.4883 16.1758 34.9219 14.9805 35.7891 13.9023C36.75 12.7773 37.9922 12.2031 39.5156 12.1797H40.8164L40.1484 15.0273H39.4805C38.1445 15.0977 37.4648 15.918 37.4414 17.4883V19.5625L39.832 19.5273V22.4102H37.4414V37H34.4883V22.4102H32.168ZM41.8008 21.0391V18.1914H44.1211V12.1094H47.1094V18.1914H49.3594V21.0742H47.1094V31.1641C47.1094 32.8281 47.7891 33.7539 49.1484 33.9414C49.4062 33.9883 49.6641 34.0117 49.9219 34.0117H50.4141L51.082 37H49.8164C46.9336 36.9766 45.1641 35.8984 44.5078 33.7656C44.2734 32.9688 44.1562 31.9844 44.1562 30.8125L44.1211 21.0391H41.8008ZM52.6641 37V12.3906H55.7227V23.1133H58.8867V26.1016H55.7227V37H52.6641ZM60.6445 26.1016V23.1133H63.7734V12.3906H66.8672V37H63.7734V26.1016H60.6445ZM69.6094 31.7969V23.1133C69.6094 22.0117 70.1016 20.9336 71.0859 19.8789C72.3047 18.6133 73.8281 17.9805 75.6562 17.9805V20.8281C74.2734 20.8281 73.3125 21.4023 72.7734 22.5508C72.6094 22.9023 72.5273 23.2539 72.5273 23.6055V31.3398C72.5273 32.207 72.9258 32.9453 73.7227 33.5547C74.2852 33.9766 74.9297 34.1875 75.6562 34.1875V37.0352C73.4297 37.0352 71.707 36.1328 70.4883 34.3281C69.9023 33.4375 69.6094 32.5938 69.6094 31.7969ZM77.168 37.0352V34.1875C78.4102 34.1875 79.3008 33.625 79.8398 32.5C80.0273 32.125 80.1211 31.7617 80.1211 31.4102V23.6055C80.1211 22.6445 79.7109 21.8828 78.8906 21.3203C78.375 20.9922 77.7891 20.8281 77.1328 20.8281V17.9805C79.2891 17.9805 80.9531 18.8594 82.125 20.6172C82.7109 21.4844 83.0039 22.3164 83.0039 23.1133V31.7969C83.0039 32.9453 82.5117 34.0586 81.5273 35.1367C80.3789 36.3789 78.9258 37.0117 77.168 37.0352ZM85.6758 31.9375V18.0156H88.6641V31.5859C88.6641 32.4297 89.0859 33.1328 89.9297 33.6953C90.4922 34.0469 91.1133 34.2227 91.793 34.2227V37.1758C89.543 37.1758 87.8086 36.2969 86.5898 34.5391C85.9805 33.6484 85.6758 32.7812 85.6758 31.9375ZM93.3398 37.1758V34.2227C94.6055 34.2227 95.5312 33.7188 96.1172 32.7109C96.3281 32.3359 96.4336 31.9609 96.4336 31.5859V18.0156H99.4219V31.9375C99.4219 33.0391 98.918 34.1289 97.9102 35.207C96.6914 36.4961 95.168 37.1523 93.3398 37.1758ZM101.461 32.0078L104.238 31.4805C104.238 32.5352 104.789 33.3672 105.891 33.9766C106.43 34.2344 106.945 34.375 107.438 34.3984V37.1758C105.164 37.1758 103.465 36.3555 102.34 34.7148C101.754 33.8477 101.461 32.9453 101.461 32.0078ZM101.637 23.3594C101.637 21.2266 102.609 19.6445 104.555 18.6133C105.492 18.1211 106.43 17.875 107.367 17.875V20.6172C106.289 20.6172 105.457 21.0625 104.871 21.9531C104.566 22.3984 104.414 22.8672 104.414 23.3594C104.414 24.1094 105 24.7188 106.172 25.1875C107.062 25.5625 108.785 26.0547 111.34 26.6641C112.934 26.9922 114.07 27.7773 114.75 29.0195C115.102 29.6758 115.277 30.4141 115.277 31.2344C115.277 33.4844 114.375 35.1484 112.57 36.2266C111.516 36.8594 110.309 37.1758 108.949 37.1758V34.3984C110.027 34.3984 110.93 34.0234 111.656 33.2734C112.172 32.7344 112.43 32.1016 112.43 31.375C112.43 30.4375 111.504 29.6875 109.652 29.125C109.184 28.9844 108.434 28.7852 107.402 28.5273C106.301 28.2695 105.504 28.0586 105.012 27.8945C103.23 27.1914 102.152 26.125 101.777 24.6953C101.684 24.2734 101.637 23.8281 101.637 23.3594ZM108.914 20.6523V17.875C110.93 17.875 112.559 18.625 113.801 20.125C114.574 21.0859 114.961 22.0938 114.961 23.1484L112.184 23.6055C112.184 22.3164 111.48 21.4141 110.074 20.8984C109.652 20.7344 109.266 20.6523 108.914 20.6523ZM117.352 31.7969V23.0781C117.375 22 117.891 20.9336 118.898 19.8789C120.117 18.6367 121.594 18.0039 123.328 17.9805V20.7578C122.203 20.7578 121.324 21.25 120.691 22.2344C120.434 22.6562 120.305 23.043 120.305 23.3945V25.7852H128.18V23.3945C128.18 22.3398 127.641 21.5664 126.562 21.0742C126.07 20.8398 125.566 20.7227 125.051 20.7227V17.9805C126.668 17.9805 128.109 18.5547 129.375 19.7031C130.43 20.7109 130.969 21.8242 130.992 23.043V28.6328H120.305V31.7969C120.305 32.4531 120.68 33.0625 121.43 33.625C122.039 34.0469 122.684 34.2578 123.363 34.2578V37C121.23 37 119.555 36.1328 118.336 34.3984C117.68 33.4844 117.352 32.6172 117.352 31.7969ZM125.051 37V34.2227C126.457 34.2227 127.512 33.6133 128.215 32.3945C128.355 32.1367 128.461 31.8906 128.531 31.6562L131.027 32.5703C130.605 34.1875 129.645 35.4062 128.145 36.2266C127.184 36.7422 126.152 37 125.051 37Z" fill="white"/>
<path d="M0.312 63L3.624 58.608L0.516 54.48H1.5L4.332 58.272H5.496V54.48H6.324V58.272H7.476L10.32 54.48H11.304L8.184 58.608L11.496 63H10.524L7.5 59.04H6.324V63H5.496V59.04H4.308L1.284 63H0.312ZM14.3802 63V54.48H15.2082V61.848L20.4882 54.48H21.2682V63H20.4402V55.764L15.2202 63H14.3802ZM30.6494 63V55.224H27.1694L27.1214 57.024C27.0814 58.2 26.9974 59.176 26.8694 59.952C26.7414 60.728 26.5614 61.34 26.3294 61.788C26.0974 62.228 25.8134 62.544 25.4774 62.736C25.1414 62.92 24.7414 63.012 24.2774 63.012V62.268C24.5894 62.268 24.8654 62.188 25.1054 62.028C25.3454 61.868 25.5494 61.588 25.7174 61.188C25.8854 60.788 26.0174 60.236 26.1134 59.532C26.2174 58.82 26.2854 57.92 26.3174 56.832L26.3894 54.48H31.4774V63H30.6494ZM38.4802 63.06C37.8802 63.06 37.3362 62.94 36.8482 62.7C36.3602 62.46 35.9402 62.136 35.5882 61.728C35.2362 61.312 34.9642 60.848 34.7722 60.336C34.5802 59.816 34.4842 59.284 34.4842 58.74C34.4842 58.172 34.5842 57.632 34.7842 57.12C34.9842 56.6 35.2642 56.14 35.6242 55.74C35.9922 55.332 36.4202 55.012 36.9082 54.78C37.3962 54.54 37.9242 54.42 38.4922 54.42C39.0922 54.42 39.6362 54.544 40.1242 54.792C40.6122 55.04 41.0282 55.372 41.3722 55.788C41.7242 56.204 41.9962 56.668 42.1882 57.18C42.3802 57.692 42.4762 58.216 42.4762 58.752C42.4762 59.32 42.3762 59.864 42.1762 60.384C41.9762 60.896 41.6962 61.356 41.3362 61.764C40.9762 62.164 40.5522 62.48 40.0642 62.712C39.5762 62.944 39.0482 63.06 38.4802 63.06ZM35.3242 58.74C35.3242 59.204 35.4002 59.652 35.5522 60.084C35.7042 60.508 35.9202 60.888 36.2002 61.224C36.4802 61.552 36.8122 61.816 37.1962 62.016C37.5882 62.208 38.0162 62.304 38.4802 62.304C38.9682 62.304 39.4042 62.204 39.7882 62.004C40.1802 61.796 40.5122 61.524 40.7842 61.188C41.0642 60.844 41.2762 60.46 41.4202 60.036C41.5642 59.612 41.6362 59.18 41.6362 58.74C41.6362 58.276 41.5602 57.832 41.4082 57.408C41.2562 56.984 41.0362 56.604 40.7482 56.268C40.4682 55.932 40.1362 55.668 39.7522 55.476C39.3682 55.284 38.9442 55.188 38.4802 55.188C38.0002 55.188 37.5642 55.288 37.1722 55.488C36.7882 55.688 36.4562 55.96 36.1762 56.304C35.9042 56.64 35.6922 57.02 35.5402 57.444C35.3962 57.868 35.3242 58.3 35.3242 58.74ZM45.5479 63V54.48H46.3759V61.848L51.6559 54.48H52.4359V63H51.6079V55.764L46.3879 63H45.5479ZM49.0039 53.76C48.6119 53.76 48.2799 53.704 48.0079 53.592C47.7439 53.472 47.5439 53.312 47.4079 53.112C47.2719 52.904 47.1999 52.68 47.1919 52.44H47.8519C47.8599 52.648 47.9439 52.836 48.1039 53.004C48.2719 53.172 48.5719 53.256 49.0039 53.256C49.4199 53.256 49.7119 53.18 49.8799 53.028C50.0479 52.868 50.1359 52.672 50.1439 52.44H50.8039C50.7959 52.68 50.7239 52.904 50.5879 53.112C50.4519 53.312 50.2519 53.472 49.9879 53.592C49.7319 53.704 49.4039 53.76 49.0039 53.76ZM60.5557 63V54.48H61.3957V58.272H62.6797L65.6077 54.48H66.5797L63.3757 58.608L66.7837 63H65.7517L62.7037 59.04H61.3957V63H60.5557ZM72.5644 63.06C71.9644 63.06 71.4204 62.94 70.9324 62.7C70.4444 62.46 70.0244 62.136 69.6724 61.728C69.3204 61.312 69.0484 60.848 68.8564 60.336C68.6644 59.816 68.5684 59.284 68.5684 58.74C68.5684 58.172 68.6684 57.632 68.8684 57.12C69.0684 56.6 69.3484 56.14 69.7084 55.74C70.0764 55.332 70.5044 55.012 70.9924 54.78C71.4804 54.54 72.0084 54.42 72.5764 54.42C73.1764 54.42 73.7204 54.544 74.2084 54.792C74.6964 55.04 75.1124 55.372 75.4564 55.788C75.8084 56.204 76.0804 56.668 76.2724 57.18C76.4644 57.692 76.5604 58.216 76.5604 58.752C76.5604 59.32 76.4604 59.864 76.2604 60.384C76.0604 60.896 75.7804 61.356 75.4204 61.764C75.0604 62.164 74.6364 62.48 74.1484 62.712C73.6604 62.944 73.1324 63.06 72.5644 63.06ZM69.4084 58.74C69.4084 59.204 69.4844 59.652 69.6364 60.084C69.7884 60.508 70.0044 60.888 70.2844 61.224C70.5644 61.552 70.8964 61.816 71.2804 62.016C71.6724 62.208 72.1004 62.304 72.5644 62.304C73.0524 62.304 73.4884 62.204 73.8724 62.004C74.2644 61.796 74.5964 61.524 74.8684 61.188C75.1484 60.844 75.3604 60.46 75.5044 60.036C75.6484 59.612 75.7204 59.18 75.7204 58.74C75.7204 58.276 75.6444 57.832 75.4924 57.408C75.3404 56.984 75.1204 56.604 74.8324 56.268C74.5524 55.932 74.2204 55.668 73.8364 55.476C73.4524 55.284 73.0284 55.188 72.5644 55.188C72.0844 55.188 71.6484 55.288 71.2564 55.488C70.8724 55.688 70.5404 55.96 70.2604 56.304C69.9884 56.64 69.7764 57.02 69.6244 57.444C69.4804 57.868 69.4084 58.3 69.4084 58.74ZM87.1321 63V56.064L84.0481 61.452H83.5201L80.4241 56.064V63H79.5841V54.48H80.4481L83.7721 60.312L87.1201 54.48H87.9721V63H87.1321ZM91.5475 63V54.48H97.9795V63H97.1395V55.224H92.3875V63H91.5475ZM107.314 63V55.224H103.834L103.786 57.024C103.746 58.2 103.662 59.176 103.534 59.952C103.406 60.728 103.226 61.34 102.994 61.788C102.762 62.228 102.478 62.544 102.142 62.736C101.806 62.92 101.406 63.012 100.942 63.012V62.268C101.254 62.268 101.53 62.188 101.77 62.028C102.01 61.868 102.214 61.588 102.382 61.188C102.55 60.788 102.682 60.236 102.778 59.532C102.882 58.82 102.95 57.92 102.982 56.832L103.054 54.48H108.142V63H107.314ZM117.437 62.256V63H111.713V54.48H117.329V55.224H112.553V58.296H116.717V59.004H112.553V62.256H117.437ZM120.465 63V54.48H121.305V58.272H122.589L125.517 54.48H126.489L123.285 58.608L126.693 63H125.661L122.613 59.04H121.305V63H120.465ZM128.478 58.68C128.478 58.16 128.566 57.652 128.742 57.156C128.926 56.652 129.19 56.196 129.534 55.788C129.878 55.372 130.302 55.044 130.806 54.804C131.31 54.556 131.882 54.432 132.522 54.432C133.282 54.432 133.93 54.608 134.466 54.96C135.01 55.304 135.41 55.748 135.666 56.292L135.006 56.7C134.822 56.324 134.59 56.028 134.31 55.812C134.03 55.588 133.73 55.428 133.41 55.332C133.098 55.236 132.786 55.188 132.474 55.188C131.962 55.188 131.51 55.292 131.118 55.5C130.726 55.7 130.394 55.972 130.122 56.316C129.858 56.652 129.658 57.032 129.522 57.456C129.386 57.872 129.318 58.296 129.318 58.728C129.318 59.2 129.398 59.652 129.558 60.084C129.718 60.516 129.942 60.9 130.23 61.236C130.518 61.564 130.854 61.828 131.238 62.028C131.63 62.22 132.054 62.316 132.51 62.316C132.83 62.316 133.158 62.26 133.494 62.148C133.83 62.036 134.142 61.864 134.43 61.632C134.726 61.4 134.962 61.1 135.138 60.732L135.834 61.092C135.658 61.516 135.386 61.876 135.018 62.172C134.65 62.468 134.238 62.692 133.782 62.844C133.334 62.996 132.894 63.072 132.462 63.072C131.878 63.072 131.342 62.948 130.854 62.7C130.366 62.444 129.942 62.108 129.582 61.692C129.23 61.268 128.958 60.796 128.766 60.276C128.574 59.748 128.478 59.216 128.478 58.68Z" fill="white"/>
</svg>
